<?xml version="1.0" standalone="no"?>
<!DOCTYPE svg PUBLIC "-//W3C//DTD SVG 20010904//EN"
 "http://www.w3.org/TR/2001/REC-SVG-20010904/DTD/svg10.dtd">
<svg version="1.0" xmlns="http://www.w3.org/2000/svg"
 width="160.000000pt" height="160.000000pt" viewBox="0 0 160.000000 160.000000"
 preserveAspectRatio="xMidYMid meet">
<metadata>
Created by potrace 1.14, written by Peter Selinger 2001-2017
</metadata>
<g transform="translate(0.000000,160.000000) scale(0.100000,-0.100000)"
fill="#000000" stroke="none">
<path d="M600 1350 l0 -50 -50 0 -50 0 0 -50 0 -50 50 0 50 0 0 -50 0 -50 200
0 200 0 0 -50 0 -50 -50 0 -50 0 0 -50 0 -50 -50 0 -50 0 0 -50 0 -50 -50 0
-50 0 0 -50 0 -50 -50 0 -50 0 0 -50 0 -50 -50 0 -50 0 0 -50 0 -50 -50 0 -50
0 0 -50 0 -50 -50 0 -50 0 0 -50 0 -50 -50 0 -50 0 0 -100 0 -100 101 0 101 0
-4 53 -3 52 53 -3 52 -4 0 51 0 51 50 0 50 0 0 50 0 50 50 0 50 0 0 50 0 50
50 0 50 0 0 50 0 50 50 0 50 0 0 50 0 50 50 0 50 0 0 50 0 50 50 0 50 0 0 50
0 50 50 0 50 0 0 -200 0 -200 50 0 50 0 0 -50 0 -50 50 0 50 0 0 50 0 50 50 0
50 0 0 250 0 250 -50 0 -50 0 0 150 0 150 -150 0 -150 0 0 50 0 50 -250 0
-250 0 0 -50z m500 -100 l0 -50 100 0 100 0 0 -36 c0 -24 -4 -33 -12 -28 -8 5
-9 2 -3 -12 5 -10 11 -43 13 -71 l4 -53 49 0 49 0 0 -250 0 -250 -50 0 -50 0
0 200 0 200 -50 0 -50 0 0 50 0 50 -50 0 -50 0 0 50 0 50 -50 0 -50 0 0 50 0
50 -200 0 -200 0 0 50 0 50 250 0 250 0 0 -50z m-735 -960 c3 -5 -1 -10 -9
-10 -10 0 -16 -9 -16 -26 0 -14 -4 -23 -10 -19 -5 3 -10 -3 -10 -14 0 -12 -4
-21 -10 -21 -5 0 -10 23 -10 50 0 49 1 50 29 50 17 0 33 -4 36 -10z"/>
</g>
</svg>
